<?xml version="1.0" standalone="no"?>
<!DOCTYPE svg PUBLIC "-//W3C//DTD SVG 20010904//EN"
 "http://www.w3.org/TR/2001/REC-SVG-20010904/DTD/svg10.dtd">
<svg version="1.0" xmlns="http://www.w3.org/2000/svg"
 width="632.000000pt" height="632.000000pt" viewBox="0 0 632.000000 632.000000"
 preserveAspectRatio="xMidYMid meet">
<metadata>
Created by potrace 1.14, written by Peter Selinger 2001-2017
</metadata>
<g transform="translate(0.000000,632.000000) scale(0.100000,-0.100000)"
fill="#000000" stroke="none">
<path d="M3057 6314 c-1 -1 -51 -4 -112 -8 -60 -3 -121 -8 -135 -10 -14 -3
-44 -7 -68 -10 -315 -41 -644 -140 -942 -285 -216 -105 -318 -166 -508 -307
-76 -56 -164 -126 -197 -155 -127 -113 -346 -342 -393 -411 -9 -13 -18 -25
-22 -28 -17 -15 -121 -165 -190 -275 -177 -282 -347 -696 -397 -964 -2 -14 -6
-28 -8 -32 -3 -4 -7 -27 -10 -50 -3 -24 -8 -51 -10 -59 -3 -8 -7 -31 -9 -50
-3 -19 -7 -51 -10 -70 -41 -256 -39 -630 4 -905 5 -33 12 -78 16 -100 3 -22
13 -69 21 -105 8 -36 16 -72 18 -80 2 -8 9 -35 16 -60 7 -25 14 -53 16 -62 1
-9 10 -36 18 -60 9 -24 18 -53 20 -65 17 -75 172 -423 252 -564 174 -304 417
-599 673 -820 41 -35 77 -66 80 -69 12 -13 167 -128 187 -138 12 -7 27 -18 35
-25 26 -26 255 -159 373 -217 239 -116 576 -231 780 -266 17 -2 55 -9 85 -14
171 -30 338 -43 535 -44 106 0 299 11 347 19 13 3 43 7 68 9 25 3 54 7 65 10
11 2 40 7 65 10 88 12 391 91 470 123 8 3 21 7 28 9 55 11 360 150 487 222
144 81 365 232 465 318 156 134 273 249 376 369 315 368 513 741 658 1235 18
61 61 263 70 325 3 22 10 74 16 115 23 163 29 410 17 619 -4 62 -9 116 -11
120 -2 3 -6 34 -10 68 -10 93 -41 254 -75 383 -119 459 -350 897 -665 1265
-69 81 -269 280 -331 330 -28 22 -56 46 -64 53 -58 56 -279 207 -426 292 -317
183 -743 331 -1100 380 -44 6 -91 13 -103 15 -67 11 -456 27 -465 19z"/>
</g>
</svg>
